<svg xmlns="http://www.w3.org/2000/svg" width="24" height="24" viewBox="0 0 24 24"><path d="M14,2A12,12,0,1,1,2,14,12,12,0,0,1,14,2Zm0,2A10,10,0,1,0,24,14,10,10,0,0,0,14,4Zm2,10h3a1,1,0,0,1,.984.82L20,15v3a1,1,0,0,1-1.984.18L18,18v-.475a5.334,5.334,0,0,1-7.841.171,1,1,0,0,1,1.44-1.388A3.334,3.334,0,0,0,16.668,16H16a1,1,0,0,1-.18-1.984L16,14h0ZM14,8.667a5.319,5.319,0,0,1,3.853,1.646A1,1,0,0,1,16.408,11.7a3.334,3.334,0,0,0-5.075.3h.659a1,1,0,0,1,.18,1.984l-.18.016H9a1,1,0,0,1-.984-.82L8,13V10.006a1,1,0,0,1,1.984-.18l.016.18v.467A5.331,5.331,0,0,1,14,8.667Z" transform="translate(-2 -2)" fill="#333"/></svg>