<svg xmlns="http://www.w3.org/2000/svg" width="16" height="15.374" viewBox="0 0 16 15.374"><path d="M17.486,9.678a1.642,1.642,0,0,0-.906-2.812l-3.358-.493a.306.306,0,0,1-.24-.173L11.476,3.149a1.652,1.652,0,0,0-2.958,0L7.012,6.2a.306.306,0,0,1-.24.173l-3.358.493a1.642,1.642,0,0,0-.906,2.812l2.425,2.359a.386.386,0,0,1,.093.293l-.573,3.345a1.639,1.639,0,0,0,2.385,1.732L9.85,15.835a.293.293,0,0,1,.293,0l3.012,1.572a1.572,1.572,0,0,0,.76.2,1.652,1.652,0,0,0,1.626-1.932l-.573-3.345a.346.346,0,0,1,.093-.28Zm-3.358,1.413a1.652,1.652,0,0,0-.466,1.466l.573,3.345a.306.306,0,0,1-.133.306.293.293,0,0,1-.333,0l-3-1.559a1.692,1.692,0,0,0-1.546,0l-3,1.586a.293.293,0,0,1-.333,0,.306.306,0,0,1-.133-.306l.573-3.345a1.652,1.652,0,0,0-.466-1.466l-2.439-2.4a.333.333,0,0,1-.093-.32A.32.32,0,0,1,3.6,8.172l3.358-.48A1.652,1.652,0,0,0,8.2,6.787L9.717,3.748a.306.306,0,0,1,.56,0l1.506,3.038a1.652,1.652,0,0,0,1.239.906l3.358.48a.32.32,0,0,1,.267.227.333.333,0,0,1-.08.32Z" transform="translate(-1.997 -2.233)" fill="#fae177"/></svg>